<?xml version="1.0" standalone="no"?>
<!DOCTYPE svg PUBLIC "-//W3C//DTD SVG 20010904//EN"
 "http://www.w3.org/TR/2001/REC-SVG-20010904/DTD/svg10.dtd">
<svg version="1.0" xmlns="http://www.w3.org/2000/svg"
 width="2000.000000pt" height="1414.000000pt" viewBox="0 0 2000.000000 1414.000000"
 preserveAspectRatio="xMidYMid meet">

<g transform="translate(0.000000,1414.000000) scale(0.100000,-0.100000)"
fill="#000000" stroke="none">
<path d="M206 14131 c5 -4 81 -54 169 -111 88 -56 168 -110 178 -118 23 -20
22 -49 -4 -62 -17 -10 -48 7 -232 126 -117 75 -223 144 -237 153 -14 8 89
-103 229 -247 140 -145 257 -265 261 -267 17 -10 140 146 205 258 15 26 26 49
24 51 -2 1 -130 53 -284 114 -251 100 -339 130 -309 103z"/>
<path d="M630 14065 c102 -41 190 -74 196 -74 6 -1 22 33 37 74 l26 75 -222
-1 -222 0 185 -74z"/>
<path d="M966 14128 c-128 -440 -450 -782 -873 -928 l-93 -33 0 -99 0 -99 38
7 c20 4 74 17 120 30 492 141 873 540 993 1039 10 44 19 83 19 88 0 13 -200 8
-204 -5z"/>
<path d="M1315 14118 c89 -297 349 -527 663 -588 80 -16 285 -7 367 15 266 73
498 287 584 538 l20 57 -112 0 -112 0 -27 -58 c-54 -114 -169 -227 -296 -291
-106 -54 -281 -75 -404 -50 -29 6 -95 31 -147 56 -123 59 -230 161 -282 270
l-34 72 -113 0 c-113 1 -113 1 -107 -21z"/>
<path d="M1620 14134 c0 -13 76 -123 109 -158 94 -100 250 -166 394 -166 98 0
208 28 287 73 69 39 167 137 203 205 l28 51 -511 0 c-280 0 -510 -2 -510 -5z"/>
<path d="M3025 14128 c-25 -72 -35 -105 -35 -116 0 -10 98 -12 508 -10 l507 3
58 27 c59 28 115 68 130 94 7 12 -83 14 -578 14 -459 0 -587 -3 -590 -12z"/>
<path d="M4269 14096 c-42 -54 -123 -115 -186 -139 -27 -10 -104 -25 -173 -33
-750 -86 -1491 -380 -2085 -828 -285 -214 -580 -512 -806 -813 -440 -587 -729
-1315 -804 -2027 -12 -120 -19 -149 -48 -210 -32 -66 -92 -139 -145 -174 l-22
-14 0 -2788 0 -2788 35 -26 c60 -46 95 -89 130 -161 30 -62 37 -90 55 -240
202 -1626 1283 -2941 2840 -3452 265 -87 577 -156 850 -187 69 -8 144 -21 166
-30 77 -27 144 -77 198 -148 l28 -38 5697 0 5697 0 33 44 c40 53 111 108 173
135 28 12 111 28 210 41 1299 165 2404 861 3071 1935 320 516 530 1121 601
1732 21 184 66 279 169 359 l47 37 0 2786 0 2787 -46 35 c-56 42 -110 113
-135 180 -11 27 -26 103 -34 167 -72 557 -214 1025 -449 1477 -452 868 -1174
1526 -2101 1913 -337 140 -774 253 -1146 296 -69 8 -148 23 -176 34 -63 24
-133 76 -181 136 l-37 46 -5696 0 -5697 0 -33 -44z m3179 -1214 c17 -22 15
-57 -4 -76 -23 -24 -70 -20 -88 6 -22 31 -20 45 9 74 27 27 59 26 83 -4z
m4960 0 c17 -22 15 -57 -4 -76 -23 -24 -70 -20 -88 6 -22 31 -20 45 9 74 27
27 59 26 83 -4z m-4018 -347 l0 -355 -45 0 -45 0 0 355 0 355 45 0 45 0 0
-355z m4280 0 l0 -355 -45 0 -45 0 0 348 c0 192 3 352 7 355 3 4 24 7 45 7
l38 0 0 -355z m680 0 l0 -355 -45 0 -45 0 0 46 0 47 -21 -27 c-59 -75 -202
-96 -291 -43 -86 50 -128 131 -128 246 0 220 238 342 398 205 l42 -36 0 136 0
136 45 0 45 0 0 -355z m-6443 305 c132 -15 223 -73 275 -178 20 -40 23 -62 23
-152 -1 -94 -3 -110 -27 -156 -15 -28 -48 -70 -73 -92 -71 -62 -115 -74 -297
-80 l-158 -4 0 329 c0 181 3 333 7 336 9 10 155 8 250 -3z m4443 -19 c57 -29
116 -85 141 -133 l19 -38 -52 0 c-50 1 -55 3 -79 39 -78 112 -284 107 -368
-10 -41 -55 -54 -109 -49 -189 11 -144 104 -234 243 -234 67 0 115 18 155 57
36 35 69 99 70 135 0 22 -2 22 -130 22 l-130 0 0 35 0 35 181 0 182 0 -6 -63
c-17 -179 -149 -300 -327 -301 -183 0 -317 129 -328 315 -9 163 78 298 223
346 63 20 200 12 255 -16z m-3333 -134 c83 -43 126 -118 131 -230 6 -123 -38
-210 -132 -260 -63 -33 -166 -31 -228 6 -26 15 -54 37 -63 49 -14 21 -15 8
-15 -150 l0 -172 -45 0 -45 0 0 385 0 385 45 0 45 0 0 -41 0 -41 42 36 c23 20
56 41 73 46 43 13 155 6 192 -13z m908 -5 c89 -46 134 -126 135 -240 0 -113
-41 -187 -130 -236 -135 -73 -305 -23 -366 108 -18 40 -24 68 -24 126 1 134
61 222 180 261 44 15 162 4 205 -19z m628 13 c20 -8 50 -32 69 -54 l32 -39 23
33 c72 106 260 98 338 -13 l30 -44 3 -199 4 -199 -46 0 -46 0 0 178 c0 158 -2
180 -20 209 -28 47 -62 65 -120 65 -58 0 -92 -18 -120 -65 -18 -29 -20 -51
-20 -209 l0 -178 -44 0 -44 0 -4 178 c-3 197 -12 228 -69 258 -40 20 -108 20
-149 -1 -57 -30 -70 -76 -70 -267 l0 -168 -45 0 -45 0 0 260 0 260 45 0 c44 0
45 -1 45 -32 l0 -31 23 20 c57 53 156 69 230 38z m982 -4 c22 -10 52 -31 68
-46 l27 -28 0 42 0 41 45 0 45 0 0 -260 0 -260 -45 0 -45 0 0 41 0 41 -40 -35
c-116 -99 -289 -65 -363 71 -55 101 -44 243 24 326 65 78 194 109 284 67z
m-3085 -251 l0 -260 -45 0 -45 0 0 260 0 260 45 0 45 0 0 -260z m4310 89 c0
-139 3 -178 17 -206 47 -99 204 -99 253 1 18 37 20 62 20 209 l0 167 45 0 45
0 0 -260 0 -260 -45 0 c-45 0 -45 0 -45 34 l0 34 -29 -27 c-77 -72 -209 -66
-287 13 -25 24 -46 58 -53 81 -6 22 -11 117 -11 213 l0 172 45 0 45 0 0 -171z
m650 -89 l0 -260 -45 0 -45 0 0 260 0 260 45 0 45 0 0 -260z m-8900 -3485
c124 -26 276 -98 368 -173 l32 -27 -137 -137 -138 -137 -63 39 c-141 86 -340
91 -498 14 -219 -107 -340 -357 -290 -594 24 -114 59 -174 150 -265 91 -91
157 -128 269 -152 126 -26 295 4 392 70 l40 27 137 -137 c75 -75 135 -140 132
-145 -10 -16 -120 -86 -191 -122 -190 -95 -439 -116 -661 -56 -230 63 -460
255 -569 475 -68 137 -93 247 -93 417 0 269 93 485 291 674 77 72 136 114 229
160 174 86 398 111 600 69z m8631 10 c154 -23 286 -77 408 -168 l53 -39 -137
-138 -137 -137 -57 34 c-87 53 -150 68 -276 67 -90 0 -121 -5 -170 -24 -117
-45 -207 -118 -276 -224 -57 -86 -79 -167 -79 -286 0 -164 54 -288 172 -395
176 -161 439 -188 639 -65 l46 28 137 -137 138 -138 -32 -26 c-88 -74 -247
-147 -380 -174 -100 -20 -284 -19 -382 1 -360 76 -651 377 -714 738 -19 107
-14 296 10 388 99 383 413 659 795 699 115 12 138 12 242 -4z m-6721 -245 l0
-190 -415 0 -415 0 0 -160 0 -160 350 0 350 0 0 -195 0 -195 -350 0 -350 0 0
-160 0 -160 415 0 415 0 0 -190 0 -190 -630 0 -630 0 0 895 0 895 630 0 630 0
0 -190z m1198 176 c221 -48 410 -239 457 -461 58 -276 -64 -543 -305 -669 -58
-31 -69 -40 -61 -54 5 -9 87 -141 183 -292 96 -151 177 -281 182 -287 6 -10
-44 -13 -236 -13 l-243 1 -174 267 c-96 147 -181 275 -189 285 -13 14 -32 17
-114 17 l-98 0 0 -285 0 -285 -215 0 -215 0 0 895 0 895 483 0 c368 -1 497 -4
545 -14z m2002 -201 l0 -215 -230 0 -230 0 0 -680 0 -680 -215 0 -215 0 0 680
0 680 -235 0 -235 0 0 215 0 215 680 0 680 0 0 -215z m540 -680 l0 -895 -215
0 -215 0 0 895 0 895 215 0 215 0 0 -895z m1240 705 l0 -190 -342 -2 -343 -3
-3 -157 -3 -158 256 0 255 0 0 -195 0 -195 -255 0 -255 0 0 -350 0 -350 -215
0 -215 0 0 895 0 895 560 0 560 0 0 -190z m550 -705 l0 -895 -215 0 -215 0 0
895 0 895 215 0 215 0 0 -895z m3281 40 c248 -462 462 -861 475 -887 l24 -48
-247 0 -248 0 -65 125 -65 125 -339 -2 -339 -3 -64 -122 -65 -123 -248 0 -248
0 481 894 c265 492 485 891 489 887 4 -3 211 -384 459 -846z m1979 640 l0
-215 -230 0 -230 0 0 -680 0 -680 -215 0 -215 0 0 680 0 680 -235 0 -235 0 0
215 0 215 680 0 680 0 0 -215z m1400 25 l0 -190 -410 0 -410 0 0 -160 0 -160
350 0 350 0 0 -195 0 -195 -350 0 -350 0 0 -160 0 -160 410 0 410 0 0 -190 0
-190 -625 0 -625 0 0 895 0 895 625 0 625 0 0 -190z m-14 -2583 l24 -28 0
-627 c0 -579 -2 -629 -18 -648 -9 -12 -27 -27 -39 -33 -16 -8 -2030 -11 -7568
-11 l-7547 0 -34 34 -34 34 0 622 0 622 34 34 34 34 7562 -2 7562 -3 24 -28z"/>
<path d="M13004 12616 c-64 -28 -99 -103 -92 -196 5 -73 37 -122 96 -151 109
-53 229 14 248 139 8 52 -7 121 -34 157 -43 59 -145 82 -218 51z"/>
<path d="M6740 12510 l0 -263 103 5 c123 7 184 31 227 90 73 101 62 288 -22
364 -50 46 -89 58 -200 62 l-108 4 0 -262z"/>
<path d="M7799 12607 c-114 -77 -117 -248 -7 -330 43 -32 132 -34 182 -5 113
66 117 261 7 335 -47 32 -135 32 -182 0z"/>
<path d="M8710 12608 c-63 -44 -75 -70 -75 -168 0 -96 10 -121 68 -164 69 -52
199 -20 245 59 31 54 29 178 -4 222 -38 51 -81 73 -144 73 -43 0 -65 -6 -90
-22z"/>
<path d="M10371 12614 c-96 -50 -120 -214 -44 -305 71 -84 210 -75 272 17 54
78 35 217 -36 271 -45 35 -140 43 -192 17z"/>
<path d="M6020 8306 l0 -226 248 0 c256 0 297 5 352 43 72 48 104 191 62 274
-23 44 -79 98 -121 116 -16 7 -123 12 -283 15 l-258 4 0 -226z"/>
<path d="M13686 7866 c-42 -80 -76 -150 -76 -155 0 -7 54 -11 160 -11 88 0
160 3 160 6 0 11 -155 304 -161 304 -3 0 -40 -65 -83 -144z"/>
<path d="M4757 5766 c-148 -53 -224 -215 -171 -368 58 -171 283 -237 436 -129
143 102 152 329 17 444 -73 63 -192 85 -282 53z m179 -131 c58 -38 79 -146 43
-220 -47 -97 -201 -99 -249 -4 -28 54 -27 136 3 180 44 67 138 87 203 44z"/>
<path d="M7814 5770 c-143 -44 -225 -208 -181 -361 35 -118 134 -189 267 -189
129 1 223 62 255 168 6 21 4 22 -69 22 -65 0 -77 -3 -86 -20 -25 -47 -105 -63
-166 -34 -60 28 -92 135 -63 211 36 95 152 118 224 43 26 -28 34 -30 97 -30
41 0 68 4 68 10 0 42 -74 131 -135 162 -45 24 -161 33 -211 18z"/>
<path d="M5520 5495 l0 -275 70 0 70 0 0 110 0 110 85 0 85 0 0 55 0 55 -85 0
-85 0 0 55 0 55 110 0 110 0 0 55 0 55 -180 0 -180 0 0 -275z"/>
<path d="M6905 5753 c-4 -10 -44 -121 -90 -248 -46 -126 -88 -242 -94 -257
l-11 -28 73 0 73 0 15 48 15 47 104 0 104 0 15 -47 15 -48 73 0 73 0 -32 88
c-17 48 -62 170 -98 272 l-67 185 -80 3 c-70 2 -82 0 -88 -15z m122 -238 l31
-95 -64 0 c-43 0 -64 4 -64 12 0 19 54 178 60 178 3 0 20 -43 37 -95z"/>
<path d="M8560 5495 l0 -275 65 0 65 0 0 115 0 115 105 0 105 0 0 -115 0 -115
70 0 70 0 0 275 0 275 -70 0 -70 0 0 -105 0 -105 -105 0 -105 0 0 105 0 105
-65 0 -65 0 0 -275z"/>
<path d="M9450 5495 l0 -275 65 0 65 0 0 275 0 275 -65 0 -65 0 0 -275z"/>
<path d="M9990 5495 l0 -275 170 0 170 0 0 55 0 55 -100 0 -100 0 0 60 0 60
90 0 90 0 0 50 0 50 -90 0 -90 0 0 55 0 55 100 0 100 0 0 55 0 55 -170 0 -170
0 0 -275z"/>
<path d="M10746 5613 c31 -87 74 -211 97 -275 l41 -118 86 0 86 0 94 267 c52
146 97 270 98 275 2 4 -30 8 -70 8 l-74 0 -64 -200 c-35 -110 -66 -200 -69
-200 -3 0 -35 90 -70 200 l-65 200 -72 0 -73 0 55 -157z"/>
<path d="M11620 5495 l0 -275 170 0 170 0 0 55 0 55 -105 0 -105 0 0 60 0 60
95 0 95 0 0 50 0 49 -92 3 -93 3 -3 52 -3 52 103 3 103 3 3 53 3 52 -170 0
-171 0 0 -275z"/>
<path d="M12360 5495 l0 -275 65 0 65 0 2 163 3 162 60 -160 61 -160 55 -3 56
-3 59 158 59 158 3 -158 3 -157 69 0 70 0 0 275 0 275 -83 0 -84 0 -73 -185
c-40 -102 -76 -183 -78 -180 -3 3 -38 85 -78 183 l-72 177 -81 3 -81 3 0 -276z"/>
<path d="M13390 5495 l0 -275 170 0 170 0 0 55 0 55 -100 0 -100 0 0 60 0 60
90 0 90 0 0 50 0 50 -90 0 -90 0 0 55 0 55 100 0 100 0 0 55 0 55 -170 0 -170
0 0 -275z"/>
<path d="M14130 5495 l0 -275 70 0 70 0 2 165 3 165 109 -165 108 -165 69 0
69 0 0 275 0 275 -70 0 -70 0 -2 -161 -3 -162 -108 162 -107 161 -70 0 -70 0
0 -275z"/>
<path d="M15010 5715 l0 -55 70 0 70 0 0 -220 0 -220 70 0 70 0 0 220 0 219
73 3 72 3 3 53 3 52 -215 0 -216 0 0 -55z"/>
<path d="M15809 14122 c13 -24 72 -65 136 -94 50 -23 52 -23 558 -26 409 -2
507 0 507 10 0 7 -9 38 -19 68 l-18 55 -587 3 c-566 2 -586 2 -577 -16z"/>
<path d="M17073 14077 c73 -200 217 -363 407 -462 143 -73 218 -90 400 -89
142 0 162 2 240 28 102 34 143 54 232 113 122 82 243 229 301 368 48 115 55
105 -75 104 l-113 0 -35 -72 c-65 -134 -205 -251 -367 -308 -83 -29 -247 -37
-333 -15 -90 22 -215 86 -278 142 -60 53 -145 168 -162 220 l-12 34 -114 0
-114 0 23 -63z"/>
<path d="M17385 14091 c197 -362 733 -376 954 -26 23 35 41 67 41 69 0 3 -230
5 -510 5 l-511 0 26 -48z"/>
<path d="M18830 14133 c0 -20 41 -175 63 -238 106 -306 332 -580 621 -750 130
-76 310 -144 449 -169 l37 -7 0 99 0 99 -92 33 c-400 139 -716 455 -847 845
l-30 90 -101 3 c-55 1 -100 -1 -100 -5z"/>
<path d="M19125 14098 c32 -102 36 -110 59 -104 11 3 100 37 196 75 l175 70
-222 0 -221 1 13 -42z"/>
<path d="M19480 14027 c-151 -60 -277 -111 -279 -113 -12 -10 149 -244 201
-292 l25 -23 259 268 c142 147 248 260 234 252 -14 -9 -120 -78 -237 -153
-184 -120 -214 -136 -232 -126 -26 13 -27 42 -3 62 9 8 89 62 177 118 88 57
164 107 170 111 30 28 -72 -6 -315 -104z"/>
<path d="M1231 14040 c-32 -121 -46 -162 -83 -250 -177 -419 -537 -736 -977
-860 l-94 -27 94 -46 c52 -25 127 -71 168 -102 l75 -57 33 16 c41 20 77 20 92
2 17 -20 3 -44 -35 -64 l-34 -17 45 -60 c106 -139 172 -326 182 -512 l6 -111
60 96 c321 514 794 990 1300 1307 l127 80 -108 7 c-59 4 -143 16 -187 27 -97
25 -237 94 -325 160 l-64 49 -18 -39 c-18 -42 -45 -51 -69 -23 -10 13 -10 24
5 68 l18 52 -57 80 c-50 68 -95 151 -132 244 -10 24 -11 23 -22 -20z m113
-616 c9 -8 16 -20 16 -25 0 -13 -72 -120 -128 -189 -51 -64 -75 -79 -97 -60
-24 20 -18 41 26 95 22 28 58 77 81 110 59 87 74 97 102 69z m-354 -408 c25
-31 6 -59 -83 -127 -116 -88 -152 -107 -175 -93 -33 21 -26 49 20 79 24 16 80
57 126 92 46 35 87 63 91 63 5 0 14 -7 21 -14z"/>
<path d="M18737 14035 c-20 -60 -83 -170 -139 -243 l-41 -53 18 -54 c16 -44
16 -56 6 -69 -24 -28 -51 -19 -69 23 l-18 39 -64 -49 c-88 -66 -228 -135 -325
-160 -44 -11 -129 -23 -188 -26 l-108 -6 48 -31 c144 -91 300 -198 388 -266
385 -298 713 -657 978 -1072 l74 -116 6 111 c3 62 15 148 27 192 25 98 94 240
155 320 l45 60 -34 17 c-38 20 -52 44 -35 64 15 18 40 18 88 -2 l40 -16 63 52
c35 28 110 74 167 102 l104 52 -88 23 c-175 47 -393 155 -525 261 -252 203
-435 474 -515 762 -40 144 -39 143 -58 85z m-35 -607 c8 -7 34 -40 56 -73 23
-33 59 -82 81 -110 43 -52 49 -73 29 -93 -20 -20 -37 -14 -74 26 -41 44 -154
206 -154 220 0 12 28 42 39 42 4 0 14 -6 23 -12z m427 -468 c51 -38 105 -77
122 -87 16 -10 32 -26 35 -36 7 -22 -12 -47 -35 -47 -30 0 -243 155 -254 184
-6 14 18 56 32 56 4 0 49 -31 100 -70z"/>
<path d="M14 14052 c4 -7 73 -117 152 -245 79 -127 144 -239 144 -248 0 -23
-25 -42 -47 -35 -10 3 -72 93 -138 200 -98 159 -121 190 -123 169 -4 -33 188
-563 204 -563 19 0 176 100 247 157 l68 55 -230 236 c-231 239 -291 298 -277
274z"/>
<path d="M19850 13923 c-74 -76 -188 -193 -254 -259 l-118 -121 70 -57 c72
-58 226 -156 246 -156 16 0 208 530 204 563 -2 22 -24 -7 -123 -168 -66 -107
-128 -198 -138 -201 -22 -7 -47 12 -47 35 0 9 65 121 144 248 79 128 147 237
151 243 14 23 -7 3 -135 -127z"/>
<path d="M2917 13878 c-19 -29 -48 -71 -66 -92 -17 -22 -30 -41 -28 -42 2 -2
41 10 88 27 107 39 392 124 444 133 108 18 59 26 -167 26 l-237 0 -34 -52z"/>
<path d="M16590 13921 c8 -5 31 -12 50 -16 60 -12 339 -95 439 -131 52 -18 96
-32 98 -30 2 1 -11 20 -28 42 -18 21 -47 63 -66 92 l-34 52 -237 0 c-136 0
-231 -4 -222 -9z"/>
<path d="M0 13437 l0 -186 52 15 c29 9 57 20 62 24 7 7 -95 312 -110 329 -2 2
-4 -79 -4 -182z"/>
<path d="M19936 13460 c-35 -94 -55 -165 -50 -170 5 -4 33 -15 62 -24 l52 -15
0 185 c0 101 -1 184 -3 184 -1 0 -29 -72 -61 -160z"/>
<path d="M0 12732 l0 -111 73 -38 c96 -50 210 -163 259 -258 58 -111 72 -174
72 -305 0 -98 -4 -126 -26 -190 -36 -103 -71 -162 -140 -236 -56 -59 -158
-133 -213 -154 -25 -9 -25 -12 -25 -121 l0 -111 28 6 c15 3 74 29 131 58 168
83 307 229 386 402 60 132 70 185 69 356 0 146 -2 160 -32 250 -75 227 -233
408 -446 510 -45 21 -93 42 -108 45 l-28 7 0 -110z"/>
<path d="M19900 12807 c-111 -49 -186 -100 -276 -191 -174 -175 -253 -380
-241 -630 6 -139 23 -207 78 -326 71 -152 191 -283 339 -370 52 -31 169 -80
190 -80 6 0 10 45 10 109 l0 108 -65 33 c-254 129 -390 419 -330 704 36 169
169 343 323 420 l72 36 0 110 c0 81 -3 110 -12 110 -7 0 -47 -15 -88 -33z"/>
<path d="M0 12025 c0 -278 4 -505 9 -505 4 0 34 17 67 38 286 186 340 587 112
837 -47 52 -158 135 -179 135 -5 0 -9 -227 -9 -505z"/>
<path d="M19924 12492 c-162 -106 -254 -275 -254 -465 0 -149 49 -272 152
-383 53 -56 145 -124 170 -124 4 0 8 227 8 505 0 278 -4 505 -9 505 -4 0 -34
-17 -67 -38z"/>
<path d="M365 11314 c-22 -19 -66 -51 -97 -71 l-58 -36 0 -240 c0 -132 2 -238
4 -236 2 2 20 65 39 139 20 74 63 213 95 308 33 94 59 172 58 172 0 -1 -19
-16 -41 -36z"/>
<path d="M19646 11194 c30 -85 73 -223 95 -307 23 -84 43 -154 45 -156 2 -2 4
104 4 236 l0 241 -44 26 c-24 14 -68 45 -98 70 l-56 45 54 -155z"/>
<path d="M58 11147 l-58 -19 0 -586 0 -586 34 33 c48 47 83 117 95 191 16 99
15 990 -1 989 -7 -1 -39 -11 -70 -22z"/>
<path d="M19863 10668 c2 -359 7 -514 15 -540 15 -45 87 -154 107 -162 13 -5
15 66 15 578 l0 583 -65 22 c-36 11 -68 21 -71 21 -3 0 -4 -226 -1 -502z"/>
<path d="M0 3598 l0 -585 65 -22 c36 -11 68 -21 70 -21 10 0 5 926 -5 989 -13
77 -46 144 -94 190 l-36 35 0 -586z"/>
<path d="M19958 4143 c-48 -51 -75 -107 -88 -184 -10 -63 -15 -989 -5 -989 2
0 34 10 70 21 l65 22 0 583 c0 321 -1 584 -3 584 -2 0 -19 -17 -39 -37z"/>
<path d="M210 3173 l0 -241 44 -26 c24 -14 68 -46 99 -71 l56 -45 -31 83 c-43
116 -104 314 -134 432 -14 55 -27 102 -30 104 -2 2 -4 -104 -4 -236z"/>
<path d="M19746 3268 c-21 -79 -64 -218 -96 -309 l-57 -167 53 43 c29 24 74
56 99 70 l45 27 0 239 c0 131 -1 239 -3 239 -2 0 -20 -64 -41 -142z"/>
<path d="M0 2821 l0 -111 72 -36 c96 -48 210 -162 260 -259 100 -194 102 -391
7 -585 -54 -109 -160 -218 -266 -273 l-73 -38 0 -110 c0 -71 4 -109 11 -109 6
0 44 14 84 31 368 153 585 553 511 941 -59 306 -287 561 -583 652 -23 7 -23 7
-23 -103z"/>
<path d="M19923 2906 c-150 -56 -310 -184 -402 -321 -250 -374 -162 -876 202
-1151 62 -47 198 -117 250 -130 l27 -6 0 110 0 111 -72 38 c-141 74 -255 208
-305 358 -23 68 -27 98 -27 200 -1 132 9 176 66 292 46 94 177 226 271 271
l67 32 0 110 c0 61 -3 110 -7 109 -5 0 -36 -10 -70 -23z"/>
<path d="M0 2115 c0 -278 4 -505 9 -505 20 0 131 82 178 132 190 203 190 536
0 744 -47 52 -157 134 -178 134 -5 0 -9 -227 -9 -505z"/>
<path d="M19945 2598 c-63 -33 -178 -154 -214 -225 -109 -217 -73 -468 93
-641 52 -55 144 -122 168 -122 4 0 8 227 8 505 0 278 -4 505 -8 505 -4 -1 -25
-10 -47 -22z"/>
<path d="M697 2078 c-9 -185 -70 -357 -176 -503 l-51 -70 34 -17 c86 -44 32
-104 -57 -62 l-33 16 -75 -56 c-41 -31 -116 -77 -168 -103 l-94 -47 79 -21
c515 -137 931 -556 1059 -1067 9 -35 18 -70 21 -78 3 -8 20 20 39 64 36 84 64
130 128 214 l40 53 -19 54 c-17 51 -17 56 -2 71 23 23 54 9 70 -31 l13 -34 65
51 c143 111 321 176 508 185 l113 6 -82 51 c-273 171 -528 374 -759 605 -243
243 -452 508 -614 777 l-33 54 -6 -112z m142 -778 c120 -82 161 -120 161 -146
0 -13 -8 -28 -19 -33 -16 -9 -37 3 -127 70 -60 45 -114 83 -121 86 -19 7 -26
42 -13 58 20 24 43 18 119 -35z m387 -362 c124 -155 152 -215 109 -232 -25 -9
-43 4 -75 55 -18 27 -56 79 -86 116 -55 70 -63 90 -42 111 23 23 45 11 94 -50z"/>
<path d="M19227 2078 c-196 -311 -476 -643 -738 -875 -168 -149 -282 -236
-486 -372 l-191 -128 111 -6 c187 -10 360 -74 507 -185 l65 -50 13 34 c16 39
47 53 70 30 15 -15 15 -20 -2 -70 l-19 -54 52 -69 c45 -58 103 -166 138 -252
8 -22 12 -15 31 62 65 257 195 482 396 682 202 201 404 319 670 390 l79 21
-97 48 c-53 27 -129 73 -168 103 l-71 55 -34 -16 c-41 -20 -77 -21 -92 -2 -17
20 -3 44 35 64 l34 17 -45 60 c-106 140 -172 323 -183 516 l-7 105 -68 -108z
m53 -743 c11 -14 6 -55 -8 -55 -4 0 -58 -38 -121 -84 -65 -48 -119 -82 -127
-79 -8 3 -19 14 -25 25 -9 17 -4 26 32 59 58 53 199 149 220 149 9 0 22 -7 29
-15z m-412 -347 c21 -21 13 -41 -42 -111 -30 -37 -68 -89 -86 -116 -32 -51
-50 -64 -75 -55 -43 17 -14 79 108 232 50 61 72 73 95 50z"/>
<path d="M0 1071 l0 -98 92 -33 c205 -71 358 -168 519 -329 161 -161 263 -322
329 -519 l29 -87 101 -3 101 -3 -7 28 c-50 231 -105 364 -222 539 -156 232
-400 426 -672 533 -50 19 -240 71 -261 71 -5 0 -9 -44 -9 -99z"/>
<path d="M19882 1145 c-125 -32 -186 -56 -311 -120 -333 -171 -601 -496 -704
-855 -14 -47 -28 -104 -32 -128 l-7 -43 102 3 101 3 29 87 c132 394 446 708
848 848 l92 33 0 98 c0 73 -3 99 -12 99 -7 -1 -55 -12 -106 -25z"/>
<path d="M1 702 c0 -137 3 -180 10 -162 26 62 109 293 109 300 0 4 -27 17 -60
28 l-60 21 1 -187z"/>
<path d="M19941 869 c-30 -11 -56 -21 -59 -24 -3 -2 22 -77 54 -166 l59 -161
3 97 c1 53 1 136 0 184 l-3 88 -54 -18z"/>
<path d="M96 542 c-131 -360 -127 -379 29 -127 66 107 126 197 133 200 20 7
52 -13 52 -33 0 -10 -65 -122 -144 -249 -79 -128 -147 -238 -151 -245 -3 -7
108 104 249 247 288 295 271 260 168 337 -67 50 -212 138 -226 138 -7 0 -56
-121 -110 -268z"/>
<path d="M19716 770 c-86 -50 -184 -120 -213 -151 l-22 -24 255 -260 c141
-143 252 -254 249 -247 -4 7 -72 117 -151 245 -79 127 -144 239 -144 249 0 20
32 40 52 33 7 -3 67 -93 133 -200 99 -161 121 -190 123 -168 4 32 -187 563
-203 563 -6 0 -41 -18 -79 -40z"/>
<path d="M1953 605 c-158 -33 -301 -112 -423 -235 -87 -86 -142 -165 -181
-259 -50 -122 -57 -111 73 -110 l113 0 34 72 c50 104 158 210 271 265 108 53
183 72 286 72 245 0 471 -141 574 -358 l25 -52 112 0 112 0 -19 55 c-45 132
-144 275 -254 367 -78 65 -235 147 -331 173 -85 23 -300 28 -392 10z"/>
<path d="M17740 613 c-201 -34 -407 -153 -530 -306 -54 -67 -132 -209 -148
-269 l-10 -38 111 1 112 0 35 72 c46 96 157 208 257 260 138 72 313 96 448 62
90 -23 213 -87 279 -147 59 -52 151 -180 162 -225 6 -22 9 -23 120 -23 63 0
114 3 114 6 0 14 -55 143 -78 184 -120 211 -334 365 -574 414 -71 15 -236 20
-298 9z"/>
<path d="M445 408 c-309 -316 -389 -400 -365 -386 14 8 120 77 237 152 184
119 215 136 232 126 12 -6 21 -19 21 -30 0 -23 -21 -39 -219 -166 -91 -59
-147 -100 -137 -102 9 -2 145 47 301 110 222 88 284 116 279 128 -14 39 -115
187 -164 241 l-55 60 -130 -133z"/>
<path d="M19368 480 c-47 -53 -168 -233 -168 -249 0 -10 568 -233 586 -229 10
2 -46 43 -137 102 -198 127 -219 143 -219 166 0 11 9 24 21 30 18 10 48 -6
232 -126 117 -75 223 -144 237 -153 14 -8 -91 105 -234 252 -142 147 -260 267
-262 267 -1 0 -27 -27 -56 -60z"/>
<path d="M2825 390 c4 -7 30 -42 56 -79 27 -36 55 -74 61 -84 12 -16 32 -17
248 -15 208 3 230 4 190 15 -274 76 -431 125 -544 169 -14 6 -17 4 -11 -6z"/>
<path d="M17075 365 c-76 -28 -236 -76 -455 -137 -40 -12 -19 -13 190 -16 216
-2 236 -1 248 15 6 10 34 48 61 84 60 82 64 89 54 88 -4 0 -48 -16 -98 -34z"/>
<path d="M1990 314 c-134 -35 -252 -119 -330 -236 -22 -33 -40 -64 -40 -69 0
-5 230 -8 510 -8 l511 0 -28 52 c-63 117 -208 226 -348 262 -74 19 -202 18
-275 -1z"/>
<path d="M17730 314 c-138 -36 -282 -146 -343 -261 l-28 -52 511 0 511 0 -28
52 c-63 118 -206 226 -348 262 -74 19 -202 18 -275 -1z"/>
<path d="M630 75 l-185 -74 222 0 222 -1 -26 75 c-15 41 -31 75 -37 74 -6 0
-94 -33 -196 -74z"/>
<path d="M19137 75 l-26 -75 222 1 222 0 -185 74 c-102 41 -190 74 -196 74 -6
1 -22 -33 -37 -74z"/>
<path d="M2991 123 c0 -10 8 -40 18 -68 l18 -50 588 -3 589 -2 -33 34 c-49 50
-119 84 -197 96 -38 5 -275 10 -526 10 -430 0 -458 -1 -457 -17z"/>
<path d="M16017 129 c-68 -10 -142 -47 -188 -95 l-33 -34 589 2 588 3 18 50
c33 94 80 85 -448 84 -258 -1 -494 -5 -526 -10z"/>
</g>
</svg>
