<?xml version="1.0"?>
<svg version="1.1" xmlns="http://www.w3.org/2000/svg" width="400" height="200" style=""><path fill="#daebe8" d="M26.564,113.44l0.616-3.08l2.66,0l0,6.44l-14,0l0-2.38l2.1-0.84l0-13.16l-2.1-0.84l0-2.38l8.54-0.14l0,2.52l-2.1,0.84l0,13.02l4.284,0z M40.60628,101.4c4.536,0,7.056,2.744,7.056,7.56c0,5.04-2.94,8.12-7.476,8.12c-4.564,0-7.14-2.38-7.14-7.7c0-5.04,2.996-7.98,7.56-7.98z M40.46628,104.76c-2.044,0-3.08,1.12-3.08,4.48c0,3.08,0.896,4.48,2.94,4.48c2.016,0,2.996-1.26,2.996-4.62c0-2.856-0.84-4.34-2.856-4.34z M61.50856,113.216l1.008,2.128c-1.372,1.008-2.94,1.736-4.76,1.736c-3.22,0-4.144-2.24-4.144-5.46l0-6.44l-2.604,0l0-2.716l2.604-0.364l0-3.864l4.2-0.756l0,4.62l3.92,0l0,3.08l-3.92,0l0,6.16c0,1.792,0.308,2.52,1.484,2.52c0.756,0,1.848-0.448,2.212-0.644z M73.28284,101.4c4.536,0,7.056,2.744,7.056,7.56c0,5.04-2.94,8.12-7.476,8.12c-4.564,0-7.14-2.38-7.14-7.7c0-5.04,2.996-7.98,7.56-7.98z M73.14284,104.76c-2.044,0-3.08,1.12-3.08,4.48c0,3.08,0.896,4.48,2.94,4.48c2.016,0,2.996-1.26,2.996-4.62c0-2.856-0.84-4.34-2.856-4.34z"/><path fill="#daebe8" d="M100.30512,112.88l0.56-3.22l1.96,0l0,5.46l-13.58,0l0-1.68l2.38-0.56l0-15.12l-2.38-0.56l0-1.54l7.7-0.14l0,1.68l-2.38,0.56l0,15.12l5.74,0z M113.28592,100c4.2,0,6.58,2.94,6.58,7.42c0,4.76-2.8,7.98-7,7.98s-6.72-2.52-6.72-7.56c0-4.76,2.94-7.84,7.14-7.84z M113.14592,102.24c-2.8,0-4.06,1.82-4.06,5.46c0,3.36,1.12,5.46,3.92,5.46s3.92-1.96,3.92-5.6c0-3.08-0.98-5.32-3.78-5.32z M133.12672,100.42l0,2.1l-4.06,0l0,8.988c0,1.288,0.616,1.708,1.4,1.708c0.672,0,1.456-0.308,2.184-0.7l0.756,1.484c-1.26,0.924-2.52,1.4-3.92,1.4c-1.68,0-3.22-0.924-3.22-4.06l0-8.82l-2.8,0l0-1.82l2.8-0.28l0-3.528l2.8-0.56l0,4.088l4.06,0z M146.10752,100.42l0,2.1l-4.06,0l0,8.988c0,1.288,0.616,1.708,1.4,1.708c0.672,0,1.456-0.308,2.184-0.7l0.756,1.484c-1.26,0.924-2.52,1.4-3.92,1.4c-1.68,0-3.22-0.924-3.22-4.06l0-8.82l-2.8,0l0-1.82l2.8-0.28l0-3.528l2.8-0.56l0,4.088l4.06,0z M162.58832,108.12l-9.66,0c0,3.08,1.652,5.04,4.06,5.04c2.8,0,4.704-1.54,4.704-1.54l0.98,1.456s-2.604,2.324-5.964,2.324c-4.48,0-6.72-2.94-6.72-7.56c0-4.48,2.8-7.84,6.86-7.84s5.88,2.38,5.88,6.58c0,0.7-0.14,1.484-0.14,1.54z M153.04032,106.02l6.72,0c0-2.1-0.812-3.836-3.052-3.836s-3.5,1.736-3.668,3.836z M171.64912,100.28l0.252,2.044c0.7-0.784,2.324-2.324,4.228-2.324c1.4,0,2.52,0.42,2.52,0.42l-0.14,4.06l-1.82,0l-0.42-2.1c-2.1,0-3.444,1.372-4.06,2.184l0,8.316l2.8,0.7l0,1.54l-7.98,0l0-1.54l2.38-0.7l0-10.36l-2.38-0.56l0-1.54z M185.74992,102.24l3.36,9.8l3.08-9.66l-1.96-0.42l0-1.54l6.636-0.14l0,1.68l-1.82,0.28l-3.976,11.088c-1.484,3.892-2.94,8.512-7.56,8.512c-0.7,0-1.792-0.14-1.792-0.14l0.252-1.96l1.4,0c1.96,0,3.22-1.848,4.452-4.564l-5.012-12.796l-1.68-0.42l0-1.54l6.58-0.14l0,1.68z"/></svg>
